<svg width="17" height="16" viewBox="0 0 17 16" fill="none" xmlns="http://www.w3.org/2000/svg">
<path d="M8.49584 15.5C6.44697 15.5 6.20544 15.4892 5.40589 15.4543C4.78238 15.4338 4.16694 15.3072 3.58606 15.08C2.58105 14.6895 1.78635 13.8956 1.39561 12.8919C1.17682 12.3097 1.05882 11.6947 1.04664 11.073C1 10.2763 1 10.0151 1 7.98503C1 5.9333 1.01083 5.69378 1.04664 4.89953C1.05908 4.27871 1.17709 3.66451 1.39561 3.08317C1.78592 2.07812 2.58191 1.28358 3.58856 0.894212C4.17044 0.674819 4.78569 0.556674 5.40755 0.54491C6.20294 0.5 6.46446 0.5 8.49584 0.5C10.5614 0.5 10.7987 0.510812 11.5858 0.54491C12.2093 0.556775 12.8261 0.674908 13.4098 0.894212C14.4161 1.28402 15.212 2.07841 15.6027 3.08317C15.8252 3.67298 15.9438 4.29678 15.9534 4.92698C16 5.72372 16 5.98403 16 8.01331C16 10.0426 15.9883 10.3087 15.9534 11.0963C15.941 11.7186 15.8227 12.3342 15.6036 12.9168C15.2118 13.9212 14.4159 14.7154 13.4098 15.1058C12.827 15.3238 12.2114 15.4417 11.5891 15.4543C10.7937 15.5 10.533 15.5 8.49584 15.5ZM8.46752 1.81653C6.43032 1.81653 6.21877 1.82651 5.42338 1.86228C4.94863 1.86856 4.47847 1.95604 4.03331 2.12092C3.37597 2.3721 2.85582 2.88938 2.60161 3.54474C2.43521 3.99409 2.34759 4.46871 2.34259 4.94777C2.29845 5.75366 2.29845 5.9649 2.29845 7.98503C2.29845 9.98104 2.30594 10.2231 2.34259 11.024C2.35004 11.4982 2.43761 11.9677 2.60161 12.4128C2.8562 13.0678 3.37626 13.5847 4.03331 13.8358C4.47816 14.0018 4.94852 14.0893 5.42338 14.0945C6.22959 14.1411 6.44198 14.1411 8.46752 14.1411C10.5105 14.1411 10.7221 14.1311 11.5108 14.0945C11.9859 14.0887 12.4564 14.0012 12.9017 13.8358C13.5551 13.5825 14.0718 13.0668 14.3259 12.4145C14.492 11.9648 14.5796 11.4899 14.585 11.0106H14.5941C14.6299 10.2156 14.6299 10.0035 14.6299 7.97172C14.6299 5.93995 14.6208 5.72621 14.585 4.93197C14.5775 4.45829 14.4899 3.98928 14.3259 3.54474C14.0724 2.89153 13.5556 2.37483 12.9017 2.12092C12.4565 1.95521 11.9859 1.8677 11.5108 1.86228C10.7054 1.81653 10.4947 1.81653 8.46752 1.81653ZM8.49584 11.8265C6.93836 11.8275 5.53366 10.8915 4.93686 9.45497C4.34007 8.01844 4.66872 6.36438 5.76954 5.26419C6.87037 4.164 8.52654 3.83439 9.96565 4.42908C11.4048 5.02378 12.3434 6.42564 12.3437 7.98087C12.3414 10.1025 10.6205 11.8224 8.49584 11.8265ZM8.49584 5.4842C7.11589 5.4842 5.99722 6.60125 5.99722 7.97921C5.99722 9.35716 7.11589 10.4742 8.49584 10.4742C9.87578 10.4742 10.9944 9.35716 10.9944 7.97921C10.9912 6.60258 9.87445 5.4874 8.49584 5.4842ZM12.4936 4.89122C11.9984 4.88938 11.5982 4.48751 11.5991 3.99302C11.6 3.49853 12.0017 3.09814 12.4969 3.09814C12.9922 3.09814 13.3939 3.49852 13.3948 3.99301C13.395 4.23159 13.3001 4.46043 13.131 4.62897C12.9619 4.79751 12.7325 4.89188 12.4936 4.89122Z" fill="#686E84"/>
</svg>
