<svg width="121" height="36" viewBox="0 0 121 36" fill="none" xmlns="http://www.w3.org/2000/svg">
<mask id="mask0_162_3998" style="mask-type:luminance" maskUnits="userSpaceOnUse" x="0" y="0" width="36" height="36">
<path d="M35.3167 0.591797H0.5V35.4085H35.3167V0.591797Z" fill="white"/>
</mask>
<g mask="url(#mask0_162_3998)">
<path d="M26.6119 0.591797H9.20354C4.39654 0.591797 0.5 4.48834 0.5 9.29533V26.7037C0.5 31.5107 4.39654 35.4072 9.20354 35.4072H26.6119C31.4189 35.4072 35.3154 31.5107 35.3154 26.7037V9.29533C35.3167 4.48834 31.4189 0.591797 26.6119 0.591797Z" fill="#1066DF"/>
<path d="M26.8171 25.861C26.7364 25.7651 26.6381 25.687 26.5283 25.6302C26.4174 25.5735 26.2963 25.5382 26.1727 25.5268C26.0492 25.5167 25.9231 25.5306 25.8045 25.5672C25.686 25.605 25.575 25.6655 25.4804 25.7462C25.4552 25.7664 25.4313 25.7878 25.406 25.808C25.3884 25.8232 25.3707 25.837 25.3531 25.8509C25.0782 26.0754 24.7907 26.2847 24.4931 26.4789L24.454 26.5041C24.3884 26.5457 24.3228 26.5873 24.256 26.6289C24.2396 26.6378 24.2257 26.6479 24.2106 26.6567C24.1955 26.6655 24.1816 26.6743 24.1677 26.6832L24.1425 26.6996L24.0958 26.7273C24.0807 26.7361 24.0668 26.745 24.0517 26.7525C23.8764 26.8547 23.6974 26.9518 23.5158 27.0426L23.4704 27.0653L23.4073 27.0968C23.3796 27.1106 23.3531 27.1233 23.3254 27.1371L23.3191 27.1397C23.2913 27.1523 23.2648 27.1661 23.2371 27.1787C23.2157 27.1888 23.1955 27.1977 23.174 27.2077L23.1324 27.2267C23.111 27.2368 23.0896 27.2468 23.0669 27.2557C23.0379 27.2683 23.0089 27.2809 22.9798 27.2935C22.9206 27.3187 22.8626 27.3439 22.8033 27.3679C22.773 27.3805 22.7428 27.3919 22.7138 27.4045C22.6558 27.4272 22.5978 27.4499 22.5398 27.4726H22.5372C22.4792 27.494 22.4212 27.5154 22.3632 27.5369L22.3519 27.5407C22.3241 27.5507 22.2964 27.5608 22.2686 27.5697C22.2396 27.5797 22.2106 27.5898 22.1816 27.5999L22.0946 27.6289C22.0858 27.6315 22.0782 27.634 22.0694 27.6378L22.0126 27.6554L21.9647 27.6705C21.9168 27.6857 21.8702 27.6995 21.8222 27.7134L21.7907 27.7235C21.7705 27.7285 21.7516 27.7349 21.7314 27.7399L21.6646 27.7588L21.6104 27.7739L21.5751 27.784L21.5297 27.7954C21.4792 27.8093 21.4275 27.8219 21.3771 27.8345C21.3645 27.837 21.3519 27.8408 21.3393 27.8433C21.3216 27.8483 21.3027 27.8521 21.285 27.8559C21.2699 27.8597 21.2548 27.8635 21.2396 27.866C21.2359 27.866 21.2321 27.8685 21.2283 27.8685C21.2043 27.8736 21.1816 27.8799 21.1589 27.8849C21.1161 27.895 21.0732 27.9038 21.0303 27.9127C20.99 27.9215 20.9496 27.9291 20.9093 27.9379C20.8765 27.9442 20.8424 27.9505 20.8096 27.9568C20.7895 27.9606 20.7693 27.9644 20.7491 27.9681C20.7289 27.9719 20.7125 27.9744 20.6936 27.9782C20.6671 27.9833 20.6407 27.9871 20.6142 27.9921L20.5373 28.0047H20.5272C20.4956 28.011 20.4641 28.0161 20.4326 28.0198C20.4011 28.0249 20.3721 28.0287 20.3431 28.0325L20.3241 28.035L20.2497 28.0451H20.2447C20.2233 28.0476 20.2031 28.0501 20.1829 28.0526L20.1287 28.0589C20.0745 28.0652 20.0202 28.0715 19.9648 28.0766H19.9521C19.9345 28.0804 19.9156 28.0816 19.8979 28.0829L19.85 28.0867C19.8311 28.0879 19.8134 28.0905 19.7945 28.0917L19.739 28.0955C19.6659 28.1005 19.5915 28.1056 19.5171 28.1106C19.4843 28.1119 19.4515 28.1144 19.4187 28.1157L19.3633 28.1182C19.3494 28.1182 19.3355 28.1195 19.3204 28.1195H19.2662L19.2119 28.122C19.193 28.122 19.1741 28.122 19.1564 28.1232H19.1363C19.106 28.1232 19.0745 28.1232 19.0442 28.1245H18.8425C17.7958 28.1119 16.7567 27.9379 15.763 27.6075C15.7277 27.5949 15.6912 27.5835 15.6559 27.5709C15.6382 27.5646 15.6206 27.5583 15.6029 27.552C15.5852 27.5457 15.5676 27.5394 15.5499 27.5331C15.5222 27.523 15.4932 27.5129 15.4654 27.5028L15.4301 27.4902C15.3986 27.4789 15.3671 27.4663 15.3356 27.4549L15.3192 27.4486C15.3066 27.4436 15.2952 27.4385 15.2826 27.4347L15.27 27.4297L15.2599 27.4259L15.2385 27.4171L15.2196 27.4095H15.2158L15.2069 27.4045L15.1678 27.3881C15.1502 27.3818 15.1338 27.3742 15.1161 27.3666C15.0871 27.3553 15.0594 27.3427 15.0317 27.3313H15.0279L14.9711 27.3061L14.9043 27.2771C13.1275 26.4953 11.6118 25.2216 10.5349 23.6075C10.5273 23.5962 10.5197 23.5836 10.5122 23.5722C9.42518 21.9178 8.84259 19.9821 8.83755 18.0023V17.9204C8.83755 17.8977 8.83755 17.875 8.83755 17.8523C8.83755 17.8144 8.83881 17.7766 8.84007 17.7388V17.7299C8.87033 16.5988 9.09101 15.4816 9.49075 14.4236C9.50462 14.387 9.51849 14.3492 9.53363 14.3126C9.54624 14.2798 9.55885 14.247 9.57272 14.2142L9.5992 14.1474C9.61433 14.1108 9.62946 14.0743 9.6446 14.0377C9.66225 13.9973 9.67864 13.957 9.6963 13.9179C9.6963 13.9154 9.69882 13.9128 9.70008 13.9103C9.70008 13.9078 9.7026 13.9028 9.70513 13.9002C9.71774 13.8725 9.72908 13.846 9.74169 13.8183C9.74169 13.8183 9.74169 13.817 9.74169 13.8158C9.75304 13.7905 9.76439 13.7653 9.777 13.7401C9.78079 13.7325 9.78331 13.725 9.78709 13.7187L9.7934 13.706C9.7997 13.6934 9.80474 13.6821 9.81105 13.6695C9.81483 13.6619 9.81862 13.6531 9.8224 13.6468L9.83375 13.6241L9.83627 13.619L9.84384 13.6052C9.85771 13.5774 9.87158 13.5484 9.88545 13.5207C9.88797 13.5156 9.89049 13.5118 9.89302 13.5068C9.91193 13.469 9.92959 13.4324 9.94976 13.3958C9.96237 13.3694 9.97624 13.3441 9.99012 13.3176L9.99894 13.3013C9.99894 13.3013 9.99894 13.3 9.99894 13.2987C9.99894 13.2987 9.99894 13.2975 9.99894 13.2962C10.0065 13.2798 10.0153 13.2659 10.0229 13.2508C10.0254 13.2458 10.0292 13.2395 10.0317 13.2344L10.0494 13.2016C10.0544 13.1915 10.0607 13.1802 10.0658 13.1701L10.0696 13.1638L10.0759 13.1512C10.086 13.131 10.096 13.1134 10.1061 13.0944C10.4226 12.5232 10.7934 11.9835 11.2133 11.4841C11.2209 11.4753 11.2284 11.4665 11.2347 11.4576C11.3873 11.2622 11.4567 11.0138 11.4289 10.7666C11.4012 10.5195 11.2764 10.2937 11.0847 10.1374C10.8917 9.981 10.6458 9.9066 10.3987 9.9293C10.1515 9.952 9.92328 10.0718 9.76313 10.2609C9.40879 10.6809 9.0847 11.1247 8.79089 11.5901L8.78458 11.6001C8.75936 11.6405 8.73414 11.6808 8.70892 11.7212C8.69631 11.7426 8.68244 11.7641 8.66983 11.7855C8.28144 12.4286 7.95357 13.1058 7.69254 13.8107C7.5614 14.1638 7.44791 14.5207 7.35081 14.8826C7.34829 14.8889 7.34702 14.8952 7.34576 14.9015C7.33694 14.933 7.32811 14.9658 7.32054 14.9986C7.31802 15.0074 7.3155 15.0162 7.31298 15.0251C7.30793 15.0427 7.30415 15.0591 7.29911 15.0768C7.29532 15.0944 7.29028 15.1108 7.2865 15.1285C7.27767 15.1638 7.26884 15.1978 7.26127 15.2331C7.26127 15.2357 7.26001 15.2394 7.25875 15.242C7.25875 15.247 7.25623 15.252 7.25497 15.2571C7.25497 15.2584 7.25497 15.2596 7.25497 15.2609C7.24993 15.2823 7.24488 15.305 7.23858 15.3264C7.23732 15.3328 7.23605 15.3378 7.23479 15.3441C6.8918 16.8561 6.84514 18.421 7.09734 19.9519C7.09986 19.9632 7.10113 19.9758 7.10365 19.9884C7.36342 21.5458 7.92835 23.0363 8.76693 24.3742C8.7808 24.3969 8.79467 24.4184 8.80854 24.4411L8.84763 24.5029C8.8615 24.5243 8.87411 24.5445 8.88799 24.5647C8.9069 24.5949 8.92708 24.6239 8.94599 24.6542C8.95734 24.6718 8.96869 24.6882 8.98004 24.7059C8.98508 24.7135 8.98887 24.7198 8.99391 24.7273C9.01409 24.7563 9.033 24.7866 9.05318 24.8156C9.05696 24.8219 9.06201 24.8282 9.06579 24.8345C9.06831 24.837 9.06957 24.8408 9.0721 24.8446C9.07462 24.8471 9.07588 24.8509 9.0784 24.8547C9.09858 24.8837 9.11875 24.9127 9.13893 24.9417C9.16415 24.977 9.18937 25.0123 9.21333 25.0464C9.23855 25.0817 9.26377 25.1157 9.28899 25.151C9.31043 25.18 9.33186 25.2078 9.35204 25.2368C9.36213 25.2494 9.37222 25.2633 9.38231 25.2759C9.3987 25.2986 9.41635 25.32 9.43274 25.3427C9.44283 25.3566 9.45292 25.3692 9.46427 25.3831C9.48066 25.4045 9.49706 25.4247 9.51345 25.4461C9.52228 25.4575 9.53111 25.4688 9.53993 25.4802C9.55759 25.5029 9.5765 25.5256 9.59416 25.5483C9.6055 25.5621 9.61685 25.576 9.6282 25.5899C9.6446 25.61 9.65973 25.629 9.67612 25.6491C9.68747 25.663 9.69882 25.6769 9.71017 25.6907C9.72656 25.7109 9.74296 25.7311 9.76061 25.7513C9.77196 25.7651 9.78457 25.779 9.79592 25.7929C9.81231 25.8118 9.8287 25.832 9.8451 25.8509C9.87158 25.8824 9.89932 25.9139 9.9258 25.9442C9.95355 25.9745 9.98255 26.0085 10.0128 26.0413C10.0418 26.0728 10.0733 26.1081 10.1036 26.1422C10.1339 26.175 10.1654 26.209 10.1957 26.2418C10.2272 26.2746 10.2574 26.3074 10.289 26.3402C10.9422 27.0199 11.6736 27.6188 12.468 28.1258L12.4857 28.1371L12.5487 28.1775C13.7429 28.9303 15.0607 29.4662 16.4415 29.7613L16.5045 29.7752L16.5625 29.7865C16.6041 29.7954 16.6458 29.8029 16.6874 29.8105C16.7075 29.8143 16.729 29.8181 16.7492 29.8218L16.7807 29.8269L16.8122 29.8319L16.8778 29.8433L16.8942 29.8458L16.9169 29.8496C16.9408 29.8534 16.9648 29.8584 16.9888 29.8622L17.077 29.8761L17.1653 29.8899L17.2536 29.9025C17.2826 29.9063 17.3128 29.9114 17.3418 29.9152L17.4301 29.9265L17.4856 29.9341L17.5423 29.9416C17.56 29.9442 17.5764 29.9454 17.594 29.9479C17.6294 29.9517 17.6659 29.9568 17.7025 29.9593L17.7807 29.9669L17.8273 29.9706L17.8929 29.9769C18.0051 29.987 18.1186 29.9959 18.2321 30.0022C18.2763 30.0047 18.3204 30.0072 18.3645 30.0097C18.4389 30.0135 18.5121 30.016 18.5865 30.0186H18.6155C18.6609 30.0198 18.705 30.0211 18.7504 30.0211H19.0959C19.1413 30.0211 19.1867 30.0198 19.2334 30.0186H19.2435C19.2901 30.0186 19.3368 30.016 19.3834 30.0148C19.4074 30.0148 19.4313 30.0135 19.4553 30.0122L19.5272 30.0097C19.5713 30.0072 19.6142 30.0059 19.6583 30.0022C19.7226 29.9984 19.787 29.9933 19.8513 29.9896C19.9206 29.9845 19.99 29.9782 20.0593 29.9719C20.1325 29.9656 20.2056 29.958 20.2787 29.9492C20.304 29.9467 20.3305 29.9429 20.3557 29.9404C20.3809 29.9378 20.4074 29.9341 20.4326 29.9303L20.4629 29.9265C20.4881 29.924 20.512 29.9202 20.536 29.9164C20.5663 29.9126 20.5965 29.9088 20.628 29.9038L20.6457 29.9013C20.681 29.8962 20.7151 29.8912 20.7504 29.8849H20.763L20.8298 29.8735L20.8929 29.8634L20.9307 29.8571H20.937C20.9849 29.8483 21.0341 29.8408 21.082 29.8319H21.0908C21.1186 29.8256 21.1476 29.8206 21.1766 29.8143C22.5902 29.5507 23.9433 29.0337 25.1728 28.2897C25.1942 28.2771 25.2169 28.2632 25.2383 28.2506C25.3077 28.209 25.3758 28.1649 25.4439 28.1207C25.4704 28.1043 25.4956 28.0867 25.5221 28.0703C25.9306 27.8029 26.3228 27.5117 26.6961 27.1964C26.8877 27.0337 27.0075 26.803 27.029 26.552C27.0504 26.3023 26.9722 26.0527 26.8096 25.861H26.8171Z" fill="white"/>
<path d="M13.408 9.36581C13.5757 9.36581 13.7396 9.32167 13.8846 9.23718C14.0725 9.12747 14.2642 9.02533 14.4584 8.92823C14.5618 8.87653 14.6665 8.82735 14.7711 8.77943C14.7926 8.76934 14.8127 8.76052 14.8342 8.75043C14.8556 8.74034 14.8758 8.73151 14.8972 8.72269C14.9111 8.71638 14.9262 8.71008 14.9401 8.70377C14.9678 8.69116 14.9968 8.67981 15.0246 8.66846L15.0876 8.64198C15.1305 8.62433 15.1734 8.60667 15.2163 8.59028L15.2642 8.57136L15.3449 8.53984C15.3651 8.53227 15.384 8.52471 15.4041 8.51714C15.4962 8.48309 15.5883 8.44905 15.6816 8.41752L15.7358 8.39861C15.8455 8.36204 15.9552 8.32673 16.0662 8.29394L16.1217 8.27755C16.2642 8.23593 16.4092 8.1981 16.5529 8.16153L16.6009 8.15019L16.6563 8.13758L16.6942 8.12875L16.7345 8.11992C16.761 8.11362 16.7887 8.10731 16.8152 8.10227C16.8556 8.09344 16.8972 8.08461 16.9375 8.07705L17.0056 8.06318C17.0977 8.04552 17.1897 8.02787 17.2818 8.01273C17.3259 8.00517 17.3713 7.9976 17.4155 7.9913C17.4596 7.98499 17.5063 7.97743 17.5529 7.97112H17.563C17.6286 7.96103 17.6942 7.95221 17.7597 7.94464C17.8051 7.9396 17.8518 7.93329 17.8972 7.92825C17.9426 7.9232 17.9892 7.91816 18.0359 7.91438C18.0825 7.91059 18.1279 7.90681 18.1746 7.90303C18.2036 7.9005 18.2326 7.89798 18.2616 7.89672C18.3196 7.89294 18.3776 7.88915 18.4356 7.88663C18.4646 7.88537 18.4936 7.88411 18.5226 7.88285C18.5403 7.88285 18.558 7.88159 18.5756 7.88033H18.6235L18.679 7.87654H18.7332C18.7698 7.87402 18.8076 7.87402 18.8442 7.87276H18.9753C19.3927 7.87276 19.8101 7.89924 20.225 7.95094C20.312 7.96103 20.4003 7.97364 20.4873 7.98751C20.5062 7.99004 20.5251 7.99382 20.5441 7.99634C20.5756 8.00139 20.6084 8.00643 20.6399 8.01273L20.6588 8.01652L20.6752 8.01904C20.6992 8.02282 20.7231 8.02787 20.7483 8.03165L20.7723 8.03669L20.8038 8.043L20.8353 8.0493L20.8959 8.06065C20.9173 8.06444 20.9375 8.06822 20.9589 8.07326L20.9753 8.07705C21.0232 8.08713 21.0712 8.09722 21.1203 8.10731L21.1645 8.1174C21.1973 8.12497 21.2313 8.13253 21.2641 8.1401C21.3032 8.14892 21.3423 8.15901 21.3814 8.16784C21.4179 8.17667 21.4545 8.18549 21.4911 8.19558L21.5302 8.20567L21.5718 8.21702H21.5743C21.6008 8.22459 21.6273 8.23089 21.6537 8.23846C21.6575 8.23846 21.6601 8.23972 21.6638 8.24098C21.6764 8.24476 21.6878 8.24728 21.7004 8.25107C21.7168 8.25611 21.7345 8.25989 21.7508 8.26494L21.7925 8.27629C21.8114 8.28133 21.8316 8.28764 21.8505 8.29394L21.8971 8.30781L21.9387 8.32042L21.9577 8.32673H21.9589L21.9829 8.33429L22.0333 8.35069L22.0648 8.36078L22.1065 8.37465C22.1304 8.38221 22.1556 8.39104 22.1796 8.39861C22.2174 8.41122 22.254 8.42383 22.2918 8.43644C22.4558 8.49318 22.6184 8.55497 22.7786 8.62054L22.8328 8.64324C22.8732 8.65964 22.9122 8.67603 22.9513 8.69368C23.0875 8.75169 23.2187 8.82105 23.3435 8.89923C24.51 9.63062 25.0043 11.1274 24.4456 12.4326C24.148 13.1262 23.5869 13.6734 22.8858 13.9534C22.1846 14.2333 21.4015 14.2245 20.7067 13.9269C20.1695 13.6961 19.592 13.5751 19.0069 13.5675H19.0044C18.8354 13.5663 18.6651 13.5738 18.4962 13.5915C18.4205 13.599 18.3448 13.6091 18.2692 13.6217C18.2351 13.6268 18.2011 13.6331 18.167 13.6394L18.1368 13.6444C18.1242 13.647 18.1116 13.6495 18.0989 13.652C18.08 13.6558 18.0611 13.6596 18.0422 13.6634H18.0384C18.0182 13.6684 17.9981 13.6734 17.9779 13.6772L17.93 13.6886L17.9022 13.6949L17.8568 13.7062C17.843 13.71 17.8278 13.7138 17.8127 13.7176L17.7824 13.7251C17.7206 13.7415 17.6601 13.7604 17.5996 13.7794C17.5756 13.7869 17.5517 13.7945 17.5277 13.8033L17.4924 13.8159C17.4798 13.8197 17.4684 13.8248 17.4571 13.8285L17.4218 13.8412C17.3865 13.855 17.3499 13.8676 17.3146 13.8828C17.1368 13.9534 16.9653 14.0353 16.7988 14.1287C16.7875 14.135 16.7774 14.1413 16.766 14.1476C16.7434 14.1602 16.7219 14.1728 16.7005 14.1854C16.679 14.198 16.6563 14.2119 16.6349 14.2245C16.6135 14.2384 16.5945 14.2497 16.5744 14.2636C16.5567 14.2749 16.5391 14.2863 16.5214 14.2976C16.5088 14.3052 16.4975 14.314 16.4848 14.3216C16.4785 14.3254 16.471 14.3304 16.4647 14.3355C16.4584 14.3405 16.447 14.3468 16.4394 14.3531C16.4306 14.3594 16.4193 14.367 16.4092 14.3746C16.389 14.3884 16.3688 14.4036 16.3487 14.4174C16.3285 14.4313 16.3083 14.4477 16.2869 14.4628C16.2768 14.4704 16.2667 14.478 16.2566 14.4855C16.046 14.6482 15.8493 14.8298 15.6715 15.0278C15.669 15.029 15.6677 15.0316 15.6664 15.0328C15.6513 15.0492 15.6362 15.0669 15.621 15.0833C15.6072 15.0996 15.592 15.116 15.5782 15.1324C15.5731 15.1387 15.5681 15.145 15.5618 15.1513C15.5441 15.1728 15.5265 15.193 15.5101 15.2144C15.5038 15.222 15.4987 15.2283 15.4937 15.2358C15.4785 15.2548 15.4647 15.2737 15.4495 15.2926C15.4395 15.3065 15.4294 15.3191 15.4193 15.3329C15.3915 15.3695 15.3638 15.4073 15.3373 15.4452C15.3373 15.4452 15.3373 15.4452 15.3373 15.4464C15.1381 15.7302 14.9716 16.0366 14.8443 16.3594C14.8443 16.3607 14.8443 16.3619 14.843 16.3632C14.838 16.3771 14.8329 16.3897 14.8266 16.4023L14.8115 16.4414C14.8077 16.4515 14.8039 16.4615 14.8001 16.4716C14.7963 16.4817 14.7913 16.4969 14.7863 16.5095C14.7812 16.5246 14.7749 16.5397 14.7699 16.5561C14.7648 16.5725 14.7585 16.5889 14.7535 16.6053C14.5189 17.3102 14.4672 18.0643 14.6034 18.7944C14.6084 18.8209 14.6135 18.8474 14.6198 18.8739C14.7295 19.4224 14.9439 19.9445 15.2516 20.4123L15.2768 20.4501C15.5908 20.9218 15.993 21.3291 16.4621 21.6481C16.4773 21.6582 16.4924 21.6683 16.5063 21.6784C17.0914 22.0705 17.761 22.3152 18.4609 22.3921C18.4772 22.3946 18.4949 22.3959 18.5113 22.3972L18.5554 22.4009H18.5769C18.8581 22.4274 19.1405 22.4249 19.4205 22.3959C19.4318 22.3959 19.4419 22.3934 19.4533 22.3921H19.4558C20.0409 22.3265 20.6058 22.1449 21.1203 21.8587C21.2288 21.7982 21.3246 21.7162 21.4028 21.6191C21.4797 21.5207 21.5377 21.4098 21.5705 21.2887C21.6046 21.1689 21.6147 21.0428 21.5995 20.9192C21.5844 20.7957 21.5466 20.6759 21.4848 20.5674C21.4242 20.459 21.3423 20.3631 21.2439 20.2849C21.1468 20.208 21.0346 20.15 20.9135 20.116C20.7937 20.0819 20.6676 20.0718 20.5441 20.087C20.4205 20.1021 20.3007 20.1399 20.1922 20.2017C19.7307 20.459 19.1985 20.5649 18.674 20.5044L18.6462 20.5018C18.6298 20.4993 18.6147 20.4981 18.5983 20.4955C18.5819 20.493 18.5643 20.4905 18.5479 20.488C18.5264 20.4842 18.5062 20.4804 18.4848 20.4766C18.452 20.4703 18.4192 20.4628 18.3877 20.4552C18.3789 20.4527 18.3688 20.4514 18.36 20.4489L18.3284 20.4413C18.3184 20.4388 18.3083 20.4363 18.2969 20.4337L18.2654 20.4249C18.2566 20.4224 18.2477 20.4199 18.2389 20.4174L18.2036 20.406C18.1834 20.3997 18.1633 20.3934 18.1431 20.3858C18.133 20.382 18.1229 20.3783 18.1128 20.3745C18.0926 20.3669 18.0725 20.3593 18.0523 20.3518C18.022 20.3404 17.9918 20.3278 17.9628 20.3152L17.9401 20.3051L17.9161 20.295L17.8921 20.2837L17.8543 20.266C17.4722 20.0794 17.1431 19.8007 16.8972 19.4539C16.8896 19.4439 16.8821 19.4325 16.8758 19.4224C16.8682 19.4111 16.8619 19.4022 16.8556 19.3921C16.8493 19.3821 16.843 19.3745 16.8379 19.3644C16.5807 18.9672 16.4407 18.5044 16.4306 18.0315V17.9483C16.4306 17.9357 16.4306 17.9218 16.4306 17.9079C16.4306 17.8941 16.4306 17.8815 16.4319 17.8676C16.4319 17.8575 16.4319 17.8474 16.4331 17.8386L16.4357 17.8096C16.4369 17.7856 16.4394 17.7617 16.442 17.739C16.442 17.7289 16.4432 17.7188 16.4445 17.7087C16.447 17.6898 16.4495 17.6709 16.4521 17.6519C16.4533 17.6381 16.4558 17.6229 16.4584 17.6091C16.4596 17.599 16.4621 17.5876 16.4634 17.5775C16.4672 17.5586 16.4697 17.5385 16.4735 17.5195C16.4773 17.5006 16.4811 17.4817 16.4848 17.4641C16.4886 17.4451 16.4937 17.4237 16.4987 17.4035C16.5025 17.3897 16.505 17.377 16.5088 17.3632C16.5113 17.3531 16.5138 17.343 16.5176 17.3316C16.5239 17.3089 16.5302 17.2875 16.5365 17.2648C16.5643 17.1728 16.5971 17.082 16.6349 16.9924C16.6828 16.8802 16.7396 16.7718 16.8026 16.6671C16.8127 16.6507 16.8228 16.6356 16.8329 16.6192C16.843 16.6028 16.8556 16.5851 16.8669 16.5675C16.8745 16.5561 16.8833 16.5448 16.8896 16.5347C16.9022 16.517 16.9148 16.5006 16.9275 16.483L16.9476 16.4565C16.9552 16.4477 16.9615 16.4376 16.9691 16.4288C16.9779 16.4174 16.9867 16.4061 16.9968 16.3947C17.0056 16.3834 17.0157 16.372 17.0246 16.3607L17.0523 16.3279C17.0687 16.309 17.0863 16.29 17.1027 16.2711L17.1065 16.2673C17.1254 16.2459 17.1456 16.2257 17.1658 16.2056C17.1809 16.1904 17.1973 16.174 17.2137 16.1589L17.2263 16.1476C17.3234 16.0568 17.4268 15.9723 17.5365 15.8979C17.558 15.884 17.5781 15.8701 17.5996 15.8563C17.6097 15.8487 17.621 15.8424 17.6324 15.8348C17.645 15.8273 17.6576 15.8184 17.6702 15.8121C17.6828 15.8058 17.6954 15.797 17.708 15.7907C17.8404 15.715 17.9804 15.652 18.1242 15.6003C18.1443 15.5927 18.1658 15.5864 18.186 15.5788C18.1998 15.5738 18.2137 15.57 18.2276 15.5662C18.2414 15.5624 18.2553 15.5574 18.2692 15.5536C18.2831 15.5498 18.2969 15.546 18.3108 15.5423C18.3247 15.5385 18.3385 15.5347 18.3511 15.5322C18.3814 15.5246 18.4117 15.5183 18.4419 15.512C18.4545 15.5095 18.4684 15.507 18.481 15.5044L18.51 15.4994L18.5403 15.4943C18.5592 15.4906 18.5781 15.488 18.5983 15.4855H18.5996C18.7194 15.4679 18.8404 15.459 18.9627 15.459H19.0044C19.3335 15.4653 19.6576 15.5347 19.9602 15.6646C21.9287 16.5082 24.2287 15.9256 25.5541 14.2459C26.2098 13.4137 26.5692 12.3872 26.5768 11.3292V11.3204C26.5805 10.3885 26.3094 9.47677 25.7987 8.69873C25.2867 7.92068 24.5579 7.30909 23.7016 6.94339C23.6714 6.93078 23.6398 6.91691 23.6096 6.9043C23.5793 6.89169 23.5465 6.87782 23.515 6.86521C23.4684 6.84629 23.4217 6.82738 23.375 6.80846C23.3284 6.78955 23.2817 6.77189 23.2338 6.75424L23.1569 6.72524C23.1317 6.71515 23.1052 6.70632 23.08 6.69623C23.0573 6.68741 23.0346 6.67984 23.0119 6.67101L22.9501 6.64958L22.8555 6.61679C22.7899 6.59409 22.7244 6.57265 22.6588 6.55122L22.6134 6.53608L22.5592 6.51843L22.4785 6.49321L22.4242 6.47682L22.3751 6.46168L22.3057 6.44151C22.259 6.42764 22.2136 6.41503 22.167 6.40242C22.1355 6.39359 22.1039 6.38476 22.0711 6.37593L21.9804 6.35198H21.9766L21.9577 6.34567C21.906 6.3318 21.8542 6.31919 21.8013 6.30658L21.7483 6.29397L21.6865 6.27884C21.655 6.27127 21.6247 6.26497 21.5932 6.2574H21.5869L21.4936 6.2347C21.4293 6.22083 21.365 6.20696 21.2994 6.19435L21.2427 6.183C21.2149 6.17796 21.1872 6.17291 21.1607 6.16661C21.143 6.16282 21.1241 6.15904 21.1052 6.15652L21.0258 6.14265L20.998 6.1376C20.9362 6.12751 20.8744 6.11743 20.8127 6.10734C20.7471 6.09725 20.6828 6.08716 20.6172 6.07833L20.539 6.06825L20.4949 6.06194C20.4949 6.06194 20.4848 6.06068 20.4797 6.05942L20.4533 6.05564L20.4268 6.05185L20.3751 6.04555L20.3398 6.04177L20.2717 6.0342L20.2502 6.03168C20.2225 6.02916 20.1948 6.02537 20.167 6.02285L20.0901 6.01528L20.0636 6.01276L19.9879 6.00646C19.9577 6.00394 19.9274 6.00141 19.8984 5.99889C19.7622 5.9888 19.626 5.97998 19.4886 5.97367H19.4583H19.4407L19.3738 5.97115L19.2793 5.96863C19.2099 5.96737 19.1405 5.9661 19.0712 5.96484H18.8669C18.8379 5.96484 18.8089 5.96484 18.7799 5.96484C18.7509 5.96484 18.7244 5.96484 18.6967 5.9661C18.6689 5.9661 18.6412 5.9661 18.6134 5.96863C18.5731 5.96863 18.5327 5.97115 18.4924 5.97241L18.423 5.97493H18.3915L18.3385 5.97872L18.2704 5.9825L18.2086 5.98628H18.1998C17.6538 6.02033 17.1116 6.09221 16.5756 6.20191L16.5567 6.2057C16.5126 6.21453 16.4697 6.22335 16.4256 6.23344H16.418C16.3991 6.23848 16.3789 6.24353 16.36 6.24731C16.1683 6.28892 15.9779 6.33684 15.7875 6.38855C14.8354 6.64831 13.9187 7.02662 13.0599 7.51211L12.9666 7.56507L12.9288 7.58651L12.9124 7.59534L12.896 7.60543C12.722 7.71513 12.5896 7.87907 12.5164 8.072C12.4433 8.26494 12.4357 8.47553 12.4925 8.67225C12.5492 8.87023 12.6703 9.04299 12.8342 9.16656C12.9994 9.29014 13.1986 9.35698 13.4042 9.35572L13.408 9.36581Z" fill="white"/>
<path d="M11.9558 13.687C11.9558 13.687 11.9508 13.6958 11.9482 13.6996C11.638 14.2053 11.3833 14.745 11.1891 15.3062C11.1109 15.5344 11.0416 15.7639 10.9836 15.9972C10.9836 16.0022 10.981 16.006 10.9798 16.0111C10.9747 16.03 10.971 16.0489 10.9659 16.0666C10.9634 16.0754 10.9621 16.0855 10.9596 16.0943C10.9558 16.112 10.9508 16.1296 10.947 16.1473C10.7175 17.1422 10.6746 18.1725 10.8234 19.1838C10.8272 19.2078 10.8297 19.2305 10.8335 19.2531C10.8348 19.262 10.836 19.2708 10.8373 19.2796C10.8385 19.2885 10.8411 19.2998 10.8423 19.3099C10.8449 19.325 10.8474 19.3414 10.8499 19.3578V19.3666C10.8499 19.3666 10.8512 19.3717 10.8524 19.3742C11.0428 20.494 11.4628 21.5633 12.0857 22.5116L12.1021 22.5356C12.1626 22.6264 12.2244 22.7159 12.2887 22.8042C12.3127 22.8382 12.3366 22.871 12.3619 22.9038C12.3631 22.9063 12.3656 22.9088 12.3669 22.9114C13.667 24.6566 15.6052 25.8155 17.759 26.1333H17.7704L17.8246 26.1433H17.8334L17.8775 26.1509H17.8876L17.9355 26.1585C18.585 26.2404 19.2407 26.2442 19.8914 26.1711L19.933 26.166C19.9469 26.1648 19.9595 26.1635 19.9734 26.161L20.0288 26.1534H20.0402L20.0478 26.1509H20.0604L20.1133 26.1421L20.1322 26.1396C20.1638 26.1358 20.194 26.1307 20.2243 26.1257H20.2256C21.59 25.9151 22.88 25.364 23.9746 24.5229C24.0742 24.4473 24.1587 24.3527 24.2217 24.2443C24.2848 24.1358 24.3264 24.016 24.3428 23.8924C24.3592 23.7688 24.3516 23.6415 24.3188 23.5217C24.2873 23.4006 24.2305 23.2871 24.1536 23.1875C24.078 23.0879 23.9821 23.0047 23.8737 22.9429C23.7652 22.8798 23.6454 22.8407 23.5206 22.8243C23.3958 22.808 23.2697 22.8168 23.1499 22.8508C23.0288 22.8836 22.9166 22.9404 22.8169 23.0185C22.1461 23.5343 21.3781 23.9088 20.5585 24.1219C20.5471 24.1245 20.537 24.127 20.5269 24.1295C20.3201 24.1825 20.1095 24.2241 19.899 24.2556H19.8901C19.8649 24.2606 19.8409 24.2644 19.8157 24.2669L19.788 24.2707C19.5169 24.306 19.2432 24.3237 18.9696 24.3237H18.9671C18.3832 24.3237 17.8006 24.243 17.2395 24.0841H17.2344C17.1903 24.0702 17.1474 24.0576 17.1033 24.0437C17.039 24.0236 16.9747 24.0034 16.9103 23.9807C16.8776 23.9693 16.8448 23.958 16.812 23.9454L16.7691 23.9303L16.7565 23.9252C16.7313 23.9164 16.7073 23.9063 16.6821 23.8975L16.6607 23.8899L16.6241 23.8748L16.614 23.871H16.6127C16.5875 23.8609 16.5636 23.8508 16.5383 23.8407L16.5194 23.8332L16.4993 23.8243C16.4627 23.8092 16.4261 23.7928 16.3883 23.7764L16.358 23.7625C15.2912 23.2771 14.3795 22.5078 13.7225 21.5368L13.7061 21.5142L13.6784 21.4725L13.6544 21.436C13.0012 20.4246 12.6481 19.2494 12.6368 18.0464V17.9644C12.6368 17.9316 12.6368 17.8988 12.6368 17.866C12.6368 17.8648 12.6368 17.8635 12.6368 17.8622V17.8572C12.6393 17.7336 12.6456 17.61 12.6557 17.4877C12.6557 17.4751 12.6582 17.4612 12.6595 17.4486C12.6595 17.4423 12.6595 17.436 12.6607 17.4297C12.72 16.7652 12.8839 16.1145 13.1475 15.5016C13.2622 15.233 13.3959 14.9733 13.5459 14.7236C13.5497 14.7173 13.5535 14.711 13.5573 14.7059C13.5636 14.6946 13.5699 14.6845 13.5775 14.6731C13.6897 14.4928 13.8108 14.3163 13.9432 14.1448C14.2799 13.7059 14.672 13.3138 15.1109 12.9771C15.2408 12.8774 15.3744 12.7829 15.5094 12.6933C15.6254 12.6177 15.7452 12.5458 15.8675 12.4777C16.5472 12.0969 17.2912 11.8447 18.0617 11.7312C18.3605 11.6883 18.6632 11.6681 18.9645 11.6681H18.9671C18.991 11.6681 19.0137 11.6681 19.0364 11.6656H19.0402C19.8586 11.6757 20.6657 11.8447 21.4185 12.1637C21.4311 12.1688 21.445 12.1751 21.4576 12.1801H21.4601C21.6909 12.2797 21.9531 12.2835 22.1864 12.1902C22.4197 12.0969 22.6076 11.914 22.706 11.6833C22.8056 11.4525 22.8081 11.1902 22.7148 10.9569C22.6215 10.7236 22.4386 10.5357 22.2079 10.4374H22.2054C22.0629 10.3756 21.9191 10.3188 21.7741 10.2659C20.4954 9.79931 19.1209 9.65807 17.7741 9.85605L17.7414 9.8611L17.6897 9.86866H17.6796L17.6405 9.87623C16.5093 10.0591 15.4286 10.4777 14.4703 11.1045L14.4627 11.1095C14.4488 11.1183 14.4337 11.1284 14.4198 11.1372L14.3757 11.1662C14.3656 11.1726 14.3555 11.1789 14.3467 11.1864C13.4804 11.7715 12.7339 12.5181 12.15 13.3856C12.1374 13.4033 12.126 13.4209 12.1147 13.4386C12.1033 13.4563 12.0895 13.4764 12.0769 13.4953L12.0693 13.5054C12.0567 13.5256 12.0441 13.5445 12.0315 13.5647L12.01 13.5988C12.0025 13.6114 11.9936 13.6227 11.9873 13.6353C11.9823 13.6429 11.9785 13.6492 11.9747 13.6555L11.9583 13.6807L11.9558 13.6845V13.687Z" fill="white"/>
</g>
<path d="M47.1737 25.2755C50.4759 25.2755 52.8204 23.4484 53.3009 20.5328C53.3343 20.3312 53.1752 20.1484 52.9706 20.1484H50.7584C50.6049 20.1484 50.4737 20.2532 50.4347 20.4025C50.0477 21.9188 48.8343 22.839 47.1826 22.839C44.9348 22.839 43.5245 20.9874 43.5245 17.9849C43.5245 14.9824 44.9548 13.1608 47.1737 13.1608C48.7976 13.1608 50.0721 14.178 50.4314 15.7544C50.4659 15.9071 50.6005 16.0162 50.7562 16.0162H52.9728C53.173 16.0162 53.3309 15.8402 53.3042 15.6419C52.9116 12.6996 50.4147 10.7231 47.1737 10.7231C43.1063 10.7231 40.5282 13.4616 40.5282 17.9938C40.5282 22.5259 43.0874 25.2744 47.1737 25.2744V25.2755Z" fill="black"/>
<path d="M58.8549 14.1177C55.6339 14.1177 53.5707 16.2322 53.5707 19.6637C53.5707 23.0951 55.6039 25.2197 58.8549 25.2197C62.1059 25.2197 64.139 23.143 64.139 19.6637C64.139 16.1843 62.0859 14.1177 58.8549 14.1177ZM58.8549 23.0249C57.3556 23.0249 56.4514 21.7972 56.4514 19.6637C56.4514 17.5302 57.3567 16.3013 58.8549 16.3013C60.353 16.3013 61.2484 17.5491 61.2484 19.6637C61.2484 21.7782 60.353 23.0249 58.8549 23.0249Z" fill="black"/>
<path d="M65.0035 25.0319H67.1779C67.3625 25.0319 67.5115 24.8826 67.5115 24.6976V19.028C67.5115 17.5273 68.3579 16.6304 69.7982 16.6304C70.0841 16.6304 70.3555 16.6627 70.5768 16.7129C70.7158 16.7452 70.8482 16.6416 70.8482 16.499C70.8482 15.9263 70.8482 14.6952 70.8482 14.3643C70.8482 14.3131 70.8137 14.2696 70.7648 14.2563C70.5679 14.2039 70.3099 14.1738 70.0218 14.1738C68.7572 14.1738 67.833 14.8947 67.4726 16.2204H67.4148V14.6351C67.4148 14.4501 67.2657 14.3008 67.0811 14.3008H65.0046C64.82 14.3008 64.6709 14.4501 64.6709 14.6351V24.6976C64.6709 24.8826 64.82 25.0319 65.0046 25.0319H65.0035Z" fill="black"/>
<path d="M80.182 20.3255C80.3666 20.3255 80.5157 20.1762 80.5157 19.9912V19.4487C80.5157 16.1832 78.5504 14.1177 75.4651 14.1177C72.3798 14.1177 70.3178 16.3002 70.3178 19.7116C70.3178 23.123 72.3131 25.2186 75.5719 25.2186C77.9987 25.2186 79.8439 24.0198 80.3388 22.1804C80.3955 21.9676 80.2354 21.7593 80.0163 21.7593H77.9631C77.8742 21.7593 77.7941 21.8117 77.7596 21.893C77.4437 22.6417 76.6307 23.094 75.6197 23.094C74.1215 23.094 73.1205 22.0523 73.1205 20.5015V20.3255H80.1809H80.182ZM75.4951 16.2412C76.8075 16.2412 77.7229 17.1569 77.7707 18.5607H73.1495C73.2462 17.1859 74.2005 16.2412 75.4951 16.2412Z" fill="black"/>
<path d="M87.1089 10.9694H81.5845C81.3999 10.9694 81.2509 11.1187 81.2509 11.3036V24.6996C81.2509 24.8845 81.3999 25.0338 81.5845 25.0338H83.8557C84.0403 25.0338 84.1894 24.8845 84.1894 24.6996V20.5986H86.9621C89.9206 20.5986 91.9738 18.6689 91.9738 15.7834C91.9738 12.8979 89.9884 10.9683 87.1089 10.9683V10.9694ZM86.3204 18.2991H84.1882V13.299H86.3293C88.012 13.299 88.9852 14.1958 88.9852 15.7946C88.9852 17.3933 88.002 18.2991 86.3193 18.2991H86.3204Z" fill="black"/>
<path d="M96.5237 14.1177C94.019 14.1177 92.2395 15.3566 91.9581 17.1937C91.9269 17.3954 92.0849 17.5781 92.2884 17.5781H94.3438C94.4439 17.5781 94.5295 17.5112 94.5573 17.4143C94.7597 16.7224 95.4493 16.2512 96.4069 16.2512C97.5736 16.2512 98.2855 16.816 98.2855 17.8499V18.5607L95.6095 18.7267C92.8745 18.8927 91.3864 19.9946 91.3864 21.9442C91.3864 23.8939 92.9335 25.1607 94.9966 25.1607C96.368 25.1607 97.6915 24.4967 98.2754 23.377H98.3344V24.6994C98.3344 24.8844 98.4834 25.0336 98.6681 25.0336H100.745C100.929 25.0336 101.078 24.8844 101.078 24.6994V17.675C101.078 15.5315 99.2787 14.1177 96.5248 14.1177H96.5237ZM98.2855 21.0964C98.2855 22.2651 97.2344 23.084 95.9198 23.084C94.8887 23.084 94.2181 22.5871 94.2181 21.7983C94.2181 21.0095 94.8509 20.5405 96.0366 20.4636L98.2855 20.3065V21.0975V21.0964Z" fill="black"/>
<path d="M101.812 17.4611C101.812 19.0298 102.853 20.0737 104.867 20.5316L106.842 20.9794C107.816 21.2134 108.185 21.5053 108.185 22.0612C108.185 22.7631 107.494 23.2021 106.365 23.2021C105.236 23.2021 104.555 22.7587 104.356 21.9587C104.331 21.8596 104.243 21.7883 104.14 21.7883H101.926C101.717 21.7883 101.561 21.9788 101.597 22.1849C101.93 24.0276 103.649 25.2197 106.286 25.2197C109.088 25.2197 111.005 23.846 111.005 21.7593C111.005 20.1606 110.149 19.3328 107.999 18.8448L105.985 18.4059C105.022 18.1819 104.555 17.821 104.555 17.2851C104.555 16.5932 105.235 16.1353 106.257 16.1353C107.28 16.1353 107.949 16.5943 108.091 17.3341C108.111 17.441 108.202 17.519 108.311 17.519H110.384C110.585 17.519 110.741 17.3419 110.715 17.1425C110.479 15.3075 108.777 14.1177 106.296 14.1177C103.581 14.1177 101.811 15.4435 101.811 17.4611H101.812Z" fill="black"/>
<path d="M111.305 17.4588C111.305 19.0274 112.346 20.0714 114.36 20.5293L116.336 20.9771C117.309 21.2111 117.679 21.503 117.679 22.0589C117.679 22.7608 116.989 23.1998 115.86 23.1998C114.731 23.1998 114.049 22.7563 113.85 21.9564C113.825 21.8573 113.738 21.786 113.634 21.786H111.421C111.212 21.786 111.055 21.9765 111.092 22.1826C111.424 24.0253 113.144 25.2174 115.781 25.2174C118.582 25.2174 120.5 23.8437 120.5 21.757C120.5 20.1583 119.643 19.3305 117.493 18.8425L115.479 18.4036C114.516 18.1796 114.049 17.8186 114.049 17.2828C114.049 16.5909 114.73 16.133 115.752 16.133C116.774 16.133 117.443 16.592 117.586 17.3318C117.607 17.4387 117.696 17.5167 117.805 17.5167H119.878C120.079 17.5167 120.235 17.3396 120.209 17.139C119.973 15.3052 118.271 14.1143 115.791 14.1143C113.076 14.1143 111.305 15.44 111.305 17.4577V17.4588Z" fill="black"/>
</svg>
